# xmcd
#
# Track frame offsets:
#	150
#	24488
#	42250
#	68436
#	89023
#	115911
#	150371
#	191094
#	215676
#	239353
#	260799
#	285163
#	321401
#	324052
#
# Disc length: 4324 seconds
#
# Revision: 0
# Processed by: cddbd v1.5.1PL2 Copyright (c) Steve Scherf et al.
# Submitted via: dBpowerAMP V4.0
#
DISCID=c010e20e
DTITLE=Ian Rankin - Botgörarna - CD-BOK 01/15
DYEAR=2005
DGENRE=CD-BOK
TTITLE0=01.01
TTITLE1=01.02
TTITLE2=01.03
TTITLE3=01.04
TTITLE4=01.05
TTITLE5=01.06
TTITLE6=01.07
TTITLE7=01.08
TTITLE8=01.09
TTITLE9=01.10
TTITLE10=01.11
TTITLE11=01.12
TTITLE12=DATA
TTITLE13=DATA
EXTD=
EXTT0=
EXTT1=
EXTT2=
EXTT3=
EXTT4=
EXTT5=
EXTT6=
EXTT7=
EXTT8=
EXTT9=
EXTT10=
EXTT11=
EXTT12=
EXTT13=
PLAYORDER=
